<svg xmlns="http://www.w3.org/2000/svg" width="15" height="15" viewBox="0 0 15 15"><g><g transform="rotate(90 298.5 903.5)"><path d="M.74 7.496C.74 3.775 3.775.74 7.496.74a6.761 6.761 0 0 1 6.756 6.756 6.761 6.761 0 0 1-6.756 6.756C3.775 14.252.74 11.217.74 7.496zm.953 0a5.811 5.811 0 0 0 5.803 5.802 5.811 5.811 0 0 0 5.802-5.802 5.811 5.811 0 0 0-5.802-5.803 5.811 5.811 0 0 0-5.803 5.803z"/></g><g transform="rotate(90 298.5 903.5)"><path d="M5.94 10.873c.093.094.209.14.337.14a.485.485 0 0 0 .337-.14l3.07-3.07a.466.466 0 0 0 .14-.336.466.466 0 0 0-.14-.338l-3.07-3.07a.477.477 0 0 0-.674.675l2.732 2.733-2.732 2.732a.477.477 0 0 0 0 .674z"/></g></g></svg>