<svg xmlns="http://www.w3.org/2000/svg" width="81" height="81" viewBox="0 0 81 81"><g><g><g/><g><path fill="#1d1d1d" d="M40.495 13.065H31.35V0h31.355v13.065H50.113l-9.618 8.014zm2.613-2.613v5.05l6.06-5.05h10.924v-7.84h-26.13v7.84z"/></g><g><path fill="#1d1d1d" d="M36.58 5.23h2.613v2.613H36.58z"/></g><g><path fill="#1d1d1d" d="M41.81 5.23h10.452v2.613H41.81z"/></g><g><path fill="#1d1d1d" d="M54.87 5.23h2.613v2.613H54.87z"/></g><g><path fill="#1d1d1d" d="M81 78.39v2.613H0V78.39h11.758V57.487H9.145v-7.839h5.226v-4.882a5.246 5.246 0 0 1 3.79-5.024l5.355-1.529v-2.335a7.816 7.816 0 0 1-2.613-5.826v-2.613c0-4.323 3.516-7.839 7.839-7.839s7.839 3.516 7.839 7.839v2.613a7.812 7.812 0 0 1-2.613 5.826v2.334l5.355 1.528c2.12.606 3.615 2.505 3.761 4.683h7.327l7.012-7.012c-3.008-1.098-5.165-3.977-5.165-7.36V27.44c0-4.323 3.516-7.839 7.839-7.839s7.839 3.516 7.839 7.839v2.613c0 2.28-.985 4.33-2.546 5.764a4.7 4.7 0 0 1 2.546 4.188v1.806h5.225v16.983c0 4.555-3.35 8.332-7.713 9.021l1.057 10.576zM50.952 57.487V60.1h10.451c2.16 0 3.92-1.759 3.92-3.92V40.005c0-.094-.027-.18-.038-.271a4.092 4.092 0 0 1-1.157 2.505l-9.257 9.258v5.991zm0 20.903h7.701L57.608 67.94h-6.656zm10.327 0h2.6L62.834 67.94h-2.6zm6.657-22.21a6.54 6.54 0 0 1-6.533 6.533H50.952v2.613h13.064a6.54 6.54 0 0 0 6.532-6.532V44.422h-2.612zM54.87 30.053a5.231 5.231 0 0 0 5.226 5.225 5.231 5.231 0 0 0 5.226-5.225v-2.613a5.231 5.231 0 0 0-5.226-5.226 5.231 5.231 0 0 0-5.226 5.226zM39.193 47.035a1.307 1.307 0 0 0 0 2.613h13.83l9.258-9.257a1.466 1.466 0 0 0-2.072-2.072l-8.716 8.716zM23.517 30.052a5.231 5.231 0 0 0 5.226 5.225 5.231 5.231 0 0 0 5.226-5.225v-2.613a5.231 5.231 0 0 0-5.226-5.226 5.231 5.231 0 0 0-5.226 5.226zm2.613 7.38v1.404c.324.5 1.224 1.667 2.613 1.667s2.289-1.167 2.613-1.667v-1.403a7.798 7.798 0 0 1-2.613.457 7.8 7.8 0 0 1-2.613-.457zm-9.145 12.215h18.53a3.866 3.866 0 0 1-.24-1.306c0-2.161 1.759-3.92 3.92-3.92h1.25c-.14-1.012-.838-1.882-1.839-2.169l-5.382-1.537c-.758.989-2.232 2.401-4.481 2.401-2.249 0-3.724-1.412-4.481-2.4l-5.383 1.538a2.625 2.625 0 0 0-1.894 2.512zm-5.226 5.227h40.5v-2.613h-40.5zm2.613 23.516h3.112l2.613-5.226h22.518l2.613 5.226h3.112V62.713H20.903V60.1H48.34v-2.613H14.37V60.1h3.92v2.613h-3.92zm26.628-2.613H21.71l-1.307 2.613h21.901z"/></g></g></g></svg>