<svg xmlns="http://www.w3.org/2000/svg" width="75" height="75" viewBox="0 0 75 75"><g><g><g/><g><g><g><path fill="#ef8b54" d="M50 6.25H25v2.5h25z"/></g></g></g><g><g><g><path fill="#ef8b54" d="M60.552 50a4.357 4.357 0 0 1 1.323 3.125 4.371 4.371 0 0 1-2.54 3.958c.414.669.665 1.45.665 2.292 0 2.352-1.87 4.262-4.199 4.357a4.32 4.32 0 0 1 .449 1.893A4.38 4.38 0 0 1 51.875 70H46.25v5h-2.5v-5a4.38 4.38 0 0 1-4.375-4.375c0-.674.166-1.305.439-1.875H32.5c-.69 0-1.25-.56-1.25-1.25v-1.25c0-4.825-3.926-8.75-8.75-8.75a1.25 1.25 0 1 1 0-2.5h3.75a5.008 5.008 0 0 0 4.841-3.75H20c-.69 0-1.25.56-1.25 1.25V75h-2.5V47.5A3.754 3.754 0 0 1 20 43.75v-12.5h2.5v12.5h10c.69 0 1.25.56 1.25 1.25 0 3.198-2.012 5.935-4.836 7.012a11.245 11.245 0 0 1 4.836 9.238h9.814a4.324 4.324 0 0 1-.439-1.875 4.371 4.371 0 0 1 2.54-3.958A4.332 4.332 0 0 1 45 53.125c0-1.225.51-2.33 1.323-3.125A4.357 4.357 0 0 1 45 46.875a4.38 4.38 0 0 1 4.375-4.375H52.5V25H55v17.5h2.5a4.38 4.38 0 0 1 4.375 4.375c0 1.225-.51 2.33-1.323 3.125zm-8.677 17.5a1.877 1.877 0 0 0 1.875-1.875 1.877 1.877 0 0 0-1.875-1.875H43.75a1.877 1.877 0 0 0-1.875 1.875c0 1.034.841 1.875 1.875 1.875zm3.75-6.25a1.877 1.877 0 0 0 1.875-1.875 1.877 1.877 0 0 0-1.875-1.875H47.5a1.877 1.877 0 0 0-1.875 1.875c0 1.034.841 1.875 1.875 1.875zM57.5 55a1.877 1.877 0 0 0 1.875-1.875A1.877 1.877 0 0 0 57.5 51.25h-8.125a1.877 1.877 0 0 0-1.875 1.875c0 1.034.841 1.875 1.875 1.875zm0-6.25a1.877 1.877 0 0 0 1.875-1.875A1.877 1.877 0 0 0 57.5 45h-8.125a1.877 1.877 0 0 0-1.875 1.875c0 1.034.841 1.875 1.875 1.875z"/></g></g></g><g><g><g><path fill="#ef8b54" d="M18.389 16.879l-1.4 1.416c-.269 2.364-2.266 4.205-4.682 4.205H6.25a1.25 1.25 0 0 1-.889-2.129l.935-.946A7.22 7.22 0 0 1 5 15.275V14.25a1.25 1.25 0 0 1 1.95-1.036l.435.294c.855.576 1.81.96 2.808 1.134.024-1.875 1.547-3.392 3.413-3.392 1.654 0 3.037 1.191 3.348 2.767l1.302.987a1.249 1.249 0 0 1 .133 1.875zm-2.78-.744l-.595-.451a1.25 1.25 0 0 1-.495-.997.927.927 0 0 0-.913-.937.927.927 0 0 0-.913.937V16c0 .69-.56 1.25-1.25 1.25a9.723 9.723 0 0 1-3.785-.764A4.78 4.78 0 0 0 8.87 18.62c.37.374.455.924.257 1.379h3.18c1.22 0 2.212-1.01 2.212-2.25 0-.329.13-.645.361-.879z"/></g></g></g><g><g><g><path fill="#ef8b54" d="M41.25 21.25v-2.5H37.5c-.69 0-1.25.56-1.25 1.25v3.75h-2.5v2.5h2.5v5h2.5v-5h2.5v-2.5h-2.5v-2.5z"/></g></g></g><g><g><g><path fill="#ef8b54" d="M45 13.75a3.754 3.754 0 0 1 3.75 3.75v15A3.754 3.754 0 0 1 45 36.25H30a3.754 3.754 0 0 1-3.75-3.75v-15A3.754 3.754 0 0 1 30 13.75zm1.25 3.75c0-.69-.56-1.25-1.25-1.25H30c-.69 0-1.25.56-1.25 1.25v15c0 .69.56 1.25 1.25 1.25h15c.69 0 1.25-.56 1.25-1.25z"/></g></g></g><g><g><g><path fill="#ef8b54" d="M18.75 6.25A3.754 3.754 0 0 1 22.5 10v15a3.754 3.754 0 0 1-3.75 3.75h-15A3.754 3.754 0 0 1 0 25V10a3.754 3.754 0 0 1 3.75-3.75zM20 10c0-.69-.56-1.25-1.25-1.25h-15c-.69 0-1.25.56-1.25 1.25v15c0 .69.56 1.25 1.25 1.25h15c.69 0 1.25-.56 1.25-1.25z"/></g></g></g><g><g><g><path fill="#ef8b54" d="M71.25 0A3.754 3.754 0 0 1 75 3.75v15a3.754 3.754 0 0 1-3.75 3.75h-15a3.754 3.754 0 0 1-3.75-3.75v-15A3.754 3.754 0 0 1 56.25 0zm1.25 12.5h-2.626c-.581 2.85-3.106 5-6.124 5s-5.543-2.15-6.124-5H55v6.25c0 .69.56 1.25 1.25 1.25h15c.69 0 1.25-.56 1.25-1.25zM63.75 15a3.754 3.754 0 0 0 3.75-3.75 3.754 3.754 0 0 0-3.75-3.75A3.754 3.754 0 0 0 60 11.25 3.754 3.754 0 0 0 63.75 15zM72.5 3.75c0-.69-.56-1.25-1.25-1.25h-15c-.69 0-1.25.56-1.25 1.25V10h2.626c.581-2.85 3.106-5 6.124-5s5.543 2.15 6.124 5H72.5z"/></g></g></g><g><g><g><path fill="#ef8b54" d="M38.75 51.25h-2.5v2.5h2.5z"/></g></g></g></g></g></svg>