<svg xmlns="http://www.w3.org/2000/svg" width="89" height="67" viewBox="0 0 89 67"><g><g><g/><g><g><g><path fill="#ef8b54" d="M78.52 30.242c-3.028-1.514-8.706-1.532-8.946-1.532a1.304 1.304 0 0 0 0 2.607c1.465 0 5.719.226 7.78 1.257a1.304 1.304 0 0 0 1.166-2.332z"/></g></g></g><g><g><g><path fill="#ef8b54" d="M85.021 48.802A5.51 5.51 0 0 1 89 54.077v10.786a1.304 1.304 0 0 1-2.607 0V54.076a2.89 2.89 0 0 0-2.088-2.767l-5.384-1.538a3.099 3.099 0 0 1-.555-.22l-3.306 3.305v12.006a1.304 1.304 0 0 1-2.607 0V52.856l-3.329-3.329a7.15 7.15 0 0 1-1.213.438l-.322.092a6.892 6.892 0 0 1 1.928 4.77v10.034a1.304 1.304 0 0 1-2.607 0V54.828c0-1.79-1.13-3.403-2.812-4.015l-8.457-3.075-3.52 5.281a2.687 2.687 0 0 1-2.249 1.201c-.712 0-1.394-.28-1.904-.79l-2.148-2.148v13.58a1.304 1.304 0 0 1-2.607 0v-13.58l-2.148 2.148a2.687 2.687 0 0 1-2.174.777 2.687 2.687 0 0 1-1.978-1.188l-3.521-5.281-8.457 3.075a4.285 4.285 0 0 0-2.812 4.015v10.034a1.304 1.304 0 0 1-2.608 0V54.828c0-1.315.38-2.57 1.049-3.64l-1.42-.71-1.516 1.44a5.471 5.471 0 0 1-3.779 1.51 5.47 5.47 0 0 1-3.779-1.51l-1.515-1.44-4.357 2.178a2.863 2.863 0 0 0-1.59 2.574v9.632a1.304 1.304 0 0 1-2.608 0V55.23a5.457 5.457 0 0 1 3.032-4.907l3.499-1.749c-3.757-1.634-4.942-3.924-5-4.039a1.303 1.303 0 0 1 0-1.166c.94-1.88 1.054-5.324 1.146-8.093.03-.921.059-1.792.114-2.568C3.235 26.455 7.99 21.74 13.85 21.74c5.86 0 10.614 4.716 11.058 10.97.055.775.084 1.645.115 2.567.091 2.768.205 6.214 1.145 8.094.183.367.183.799 0 1.166-.057.114-1.245 2.409-4.994 4.041l1.26.63a6.835 6.835 0 0 1 1.61-.845l8.022-2.916a1.302 1.302 0 0 1 .355-.998l2.43-2.552v-4.384c-3.41-2.894-5.577-7.285-5.577-12.158V22.41a15.07 15.07 0 0 1-1.394-6.338v-2.788C27.88 6.418 33.467.83 40.335.83H59.85c.72 0 1.304.584 1.304 1.304v13.939c0 2.194-.469 4.324-1.394 6.337v3.42c0 4.198-1.757 8.253-4.82 11.124-.246.23-.5.447-.756.659v4.283l2.428 2.552c.262.274.383.639.356.998l7.6 2.763 2.627-.75c1.076-.308 1.076-.428 1.076-.719v-1.883a10.172 10.172 0 0 1-4.182-8.225v-2.13l-.668-1.335a6.916 6.916 0 0 1-.726-3.076v-.078c0-4.562 3.712-8.274 8.274-8.274h12.545c.72 0 1.304.584 1.304 1.304v6.718a8.316 8.316 0 0 1-.873 3.7l-.52 1.042v2.48a9.591 9.591 0 0 1-2.936 6.938c-.39.38-.809.719-1.247 1.022v1.797c0 .242.163.457.395.524zM8.364 44.937a9.722 9.722 0 0 1-3.441-4.245c-.156 1.125-.387 2.19-.743 3.121.522.64 1.745 1.809 4.184 2.686zm8.68 3.939a2.698 2.698 0 0 1-.317-1.274v-1.388a9.696 9.696 0 0 1-5.756-.001v1.39c0 .455-.112.89-.317 1.273l1.213 1.152a2.877 2.877 0 0 0 3.965 0zm3.779-10.797c-2.109-4.644-7.532-5.275-9.217-5.357l-1.958 2.03a1.304 1.304 0 0 1-1.877-1.81l2.352-2.44c.237-.246.561-.389.903-.398.095-.003 2.344-.054 4.959.786 2.83.909 5.02 2.52 6.439 4.705l-.008-.233a69.064 69.064 0 0 0-.109-2.468c-.167-2.343-1.103-4.502-2.636-6.079a8.058 8.058 0 0 0-5.821-2.468 8.058 8.058 0 0 0-5.822 2.468c-1.533 1.577-2.47 3.736-2.636 6.079a67.57 67.57 0 0 0-.108 2.469l-.012.335a1.304 1.304 0 0 1 1.518 1.285 7.068 7.068 0 0 0 7.06 7.06c3.5 0 6.442-2.542 6.973-5.964zm-1.488 8.425c2.436-.877 3.665-2.058 4.184-2.69-.355-.929-.586-1.992-.742-3.115a9.644 9.644 0 0 1-3.442 4.25zm12.546-21.15c0 6.91 5.18 12.658 11.792 13.086 3.088.2 6.045-.691 8.46-2.524l.022-.016c.345-.264.68-.546 1-.848a12.516 12.516 0 0 0 3.997-9.22v-3.713c0-.196.045-.39.13-.567a12.505 12.505 0 0 0 1.264-5.479V3.438H40.335c-5.43 0-9.848 4.417-9.848 9.847v2.788c0 1.898.425 3.742 1.264 5.479.085.177.13.37.13.567zm10.602 22.97l-6.15-4.205-1.305 1.371 4.054 6.082c.007.01.024.036.067.04.042.004.063-.017.072-.026zm9.094-6.595v-2.381a15.1 15.1 0 0 1-7.047 1.727c-.34 0-.682-.011-1.026-.034a14.679 14.679 0 0 1-6.047-1.745v2.433l7.06 4.826zm2.428 3.762L52.7 44.12l-6.15 4.204 3.262 3.262c.01.01.03.032.073.026a.083.083 0 0 0 .066-.04zM76.73 47.5a3.118 3.118 0 0 1-.094-.76v-.525a9.686 9.686 0 0 1-3.175.43 9.144 9.144 0 0 1-2.581-.456v.55c0 .283-.03.54-.08.774l2.958 2.958zm4.088-10.518v-2.788c0-.203.047-.402.138-.583l.658-1.316a5.698 5.698 0 0 0 .598-2.534v-5.415H70.969a5.673 5.673 0 0 0-5.666 5.666v.078c0 .66.156 1.32.45 1.91l.806 1.61c.09.182.138.381.138.584v2.437c0 3.971 3.069 7.294 6.842 7.407a7.007 7.007 0 0 0 5.134-1.99 7.004 7.004 0 0 0 2.144-5.066z"/></g></g></g><g><g><g><path fill="#ef8b54" d="M82.124 55.2c-.72 0-1.304.584-1.304 1.304v8.363a1.304 1.304 0 1 0 2.607 0v-8.363c0-.72-.583-1.304-1.303-1.304z"/></g></g></g><g><g><g><path fill="#ef8b54" d="M6.884 56.92c-.72 0-1.304.584-1.304 1.304v6.64a1.304 1.304 0 0 0 2.607 0v-6.64c0-.72-.583-1.304-1.303-1.304z"/></g></g></g><g><g><g><path fill="#ef8b54" d="M55.191 16.552c-4.93-4.931-15.247-3.989-19.454-3.354a2.676 2.676 0 0 0-2.287 2.666v3.003a1.304 1.304 0 0 0 2.607 0v-3.003c0-.045.03-.082.069-.088 1.68-.254 5.015-.644 8.47-.414 4.065.27 7.01 1.291 8.751 3.033a1.304 1.304 0 1 0 1.844-1.843z"/></g></g></g><g><g><g><path fill="#ef8b54" d="M29.184 57.98c-.72 0-1.304.584-1.304 1.304v5.576a1.304 1.304 0 0 0 2.607 0v-5.576c0-.72-.583-1.304-1.303-1.304z"/></g></g></g><g><g><g><path fill="#ef8b54" d="M59.854 57.98c-.72 0-1.304.584-1.304 1.304v5.576a1.304 1.304 0 0 0 2.607 0v-5.576c0-.72-.583-1.304-1.303-1.304z"/></g></g></g></g></g></svg>