<svg xmlns="http://www.w3.org/2000/svg" width="15" height="15"><path d="M1194.504 605.74c3.721 0 6.756 3.035 6.756 6.756a6.761 6.761 0 01-6.756 6.756 6.761 6.761 0 01-6.756-6.756c0-3.721 3.035-6.756 6.756-6.756zm0 .953a5.811 5.811 0 00-5.802 5.803 5.811 5.811 0 005.802 5.802 5.811 5.811 0 005.803-5.802 5.811 5.811 0 00-5.803-5.803z"/><path d="M1191.127 610.94a.462.462 0 00-.14.337.485.485 0 00.14.337l3.07 3.07a.466.466 0 00.336.14.466.466 0 00.338-.14l3.07-3.07a.477.477 0 00-.675-.674l-2.733 2.732-2.732-2.732a.477.477 0 00-.674 0z"/></svg>