<svg xmlns="http://www.w3.org/2000/svg" width="75" height="75"><path fill="#ef8b54" d="M74.49 20.687l-.624 1.088c.59.348.79 1.105.45 1.7l-3.125 5.41 1.087.626a3.75 3.75 0 011.375 5.124l-4.999 8.661a1.253 1.253 0 01-1.712.462 1.249 1.249 0 01-.4-1.762l5-8.66c.165-.288.21-.63.124-.95a1.249 1.249 0 00-.587-.763l-1.088-.625-10.735 18.634-4.762 5.787-1.25 2.087a3.75 3.75 0 01-3.262 1.85 3.851 3.851 0 01-.987-.125l-2.912 3.687a2.501 2.501 0 01-4.274-.638l-.775-1.962-.463.763a2.5 2.5 0 01-4.637-1.076l-.437-5.073-3.062 9.223a1.25 1.25 0 01-1.187.85 1.08 1.08 0 01-.388-.1 1.25 1.25 0 01-.787-1.575l3.074-9.223a2.5 2.5 0 014.862.587l.425 4.999.45-.762a2.499 2.499 0 014.462.35l.787 1.974 2.812-3.449a3.75 3.75 0 01-.2-4.05l1.25-2.336 2.624-7.012 10.624-18.41-1.088-.624a1.25 1.25 0 01.298-2.287c.321-.087.664-.042.952.125l1.087.625 3.175-5.411a1.25 1.25 0 011.7-.45l.624-1.088a3.75 3.75 0 016.874.9 3.748 3.748 0 01-.375 2.9zm-4.961-1.462l2.175 1.25.624-1.088c.16-.289.205-.628.125-.95a1.25 1.25 0 00-.587-.761 1.313 1.313 0 00-.95-.125 1.25 1.25 0 00-.763.587zM56.356 49.12l-3.937-2.274-1.774 4.748 1.85 1.076.624.362zm-5.998 7.72a1.25 1.25 0 00.811-.596l.625-1.075-2.174-1.25-.625 1.087a1.25 1.25 0 101.363 1.834zm17.421-27.092l-4.324-2.5-9.998 17.323 4.324 2.5zm3.75-6.486l-4.325-2.5-2.5 4.324 4.325 2.5zM19.726 56.02l-4.424 4.413-2.65-2.65a1.25 1.25 0 10-1.762 1.774l2.65 2.65a2.499 2.499 0 001.762.725 2.5 2.5 0 001.775-.725l4.411-4.424a1.25 1.25 0 00-1.762-1.762z"/><path fill="#ef8b54" d="M5 59.373c0 5.867 4.756 10.623 10.623 10.623 5.867 0 10.623-4.756 10.623-10.623a1.25 1.25 0 00-2.5 0 8.124 8.124 0 11-8.123-8.124 8.053 8.053 0 014.874 1.625 1.25 1.25 0 101.5-2A10.625 10.625 0 005 59.374zM44.994 10.01a1.25 1.25 0 100-2.5H12.5c-.69 0-1.25.56-1.25 1.25v4.999c0 .69.56 1.25 1.25 1.25h32.494a1.25 1.25 0 100-2.5H13.75v-2.5zm-28.744 7.5a1.25 1.25 0 000 2.5h24.995a1.25 1.25 0 100-2.5zm32.495 8.75H21.25a1.25 1.25 0 000 2.5h27.495a1.25 1.25 0 100-2.5zm-12.5 8.75c0-.69-.56-1.25-1.25-1.25H10a1.25 1.25 0 000 2.5h24.995c.69 0 1.25-.56 1.25-1.25zm12.493-1.25H39.99a1.25 1.25 0 000 2.5h8.748a1.25 1.25 0 100-2.5zm-26.24 8.75a1.25 1.25 0 100-2.5H10a1.25 1.25 0 000 2.5zm5.002 0h8.748a1.25 1.25 0 100-2.5H27.5a1.25 1.25 0 000 2.5z"/><path fill="#ef8b54" d="M56.24 57.5c-.69 0-1.25.56-1.25 1.25v12.498c0 .69-.559 1.25-1.25 1.25H3.75a1.25 1.25 0 01-1.25-1.25V3.759c0-.69.56-1.25 1.25-1.25h49.99c.691 0 1.25.56 1.25 1.25v23.472a1.25 1.25 0 002.5 0V3.759A3.75 3.75 0 0053.74.01H3.75A3.75 3.75 0 000 3.76v67.488a3.75 3.75 0 003.75 3.75h49.99a3.75 3.75 0 003.75-3.75V58.75c0-.69-.56-1.25-1.25-1.25z"/></svg>